<?xml version="1.0" standalone="no"?>
<!DOCTYPE svg PUBLIC "-//W3C//DTD SVG 20010904//EN"
 "http://www.w3.org/TR/2001/REC-SVG-20010904/DTD/svg10.dtd">
<svg version="1.0" xmlns="http://www.w3.org/2000/svg"
 width="211.000000pt" height="211.000000pt" viewBox="0 0 211.000000 211.000000"
 preserveAspectRatio="xMidYMid meet">
<metadata>
Created by potrace 1.11, written by Peter Selinger 2001-2013
</metadata>
<g transform="translate(0.000000,211.000000) scale(0.100000,-0.100000)"
fill="#000000" stroke="none">
<path d="M83 1422 c-24 -4 -29 -14 -38 -97 -6 -49 -10 -79 -20 -140 -18 -109
-18 -133 1 -132 11 0 35 -1 54 -2 l35 -1 -36 -21 c-48 -28 -72 -72 -73 -131 0
-37 5 -53 22 -70 22 -22 31 -23 210 -26 103 -2 184 -1 181 3 -4 3 -78 8 -165
11 -170 5 -192 8 -211 33 -17 22 -16 76 2 111 19 37 102 76 178 84 37 4 69 14
85 27 15 11 49 34 76 50 26 17 46 32 43 36 -3 3 -21 -7 -40 -21 -33 -26 -57
-33 -57 -18 0 4 18 18 39 31 62 38 80 93 56 164 -29 83 -77 108 -218 110 -56
1 -112 1 -124 -1z m202 -118 c37 -15 38 -94 1 -94 -19 0 -106 71 -106 86 0 15
73 20 105 8z"/>
<path d="M499 1234 c-9 -11 -10 -20 -2 -32 14 -22 43 -22 57 1 9 15 7 21 -8
33 -25 18 -31 18 -47 -2z"/>
<path d="M1047 1221 c-2 -3 -3 -91 -3 -196 l1 -190 28 -3 c26 -3 27 -2 27 46
0 35 5 54 18 65 10 10 21 17 23 17 3 0 27 -29 53 -65 40 -54 52 -65 77 -65 16
0 29 3 29 6 0 3 -27 41 -61 85 -33 44 -59 84 -57 89 2 5 27 33 56 63 28 31 52
58 52 61 0 3 -13 6 -29 6 -24 0 -42 -14 -95 -72 l-66 -72 0 116 0 116 -25 0
c-14 0 -27 -3 -28 -7z"/>
<path d="M499 1128 c-1 -7 -2 -77 -3 -155 l-1 -143 27 0 28 0 0 155 0 155 -25
0 c-14 0 -26 -6 -26 -12z"/>
<path d="M640 1131 c0 -6 5 -11 10 -11 6 0 10 -55 10 -145 l0 -145 28 0 28 0
1 83 c1 125 1 126 28 152 30 30 83 33 116 7 20 -17 23 -29 25 -118 1 -54 3
-105 3 -111 1 -7 12 -13 26 -13 l25 0 0 106 c0 120 -15 166 -61 189 -36 19
-110 19 -135 0 -24 -18 -35 -19 -31 -2 1 7 -12 13 -35 15 -22 2 -38 -1 -38 -7z"/>
<path d="M1373 1123 c-10 -4 -13 -42 -11 -151 1 -81 3 -121 5 -89 3 49 7 57
23 57 11 0 20 5 20 11 0 6 -9 8 -20 4 -19 -6 -20 -2 -20 74 0 74 2 81 20 81
11 0 20 4 20 8 0 9 -17 11 -37 5z"/>
<path d="M1420 1121 c0 -4 13 -8 29 -9 66 -2 101 -48 81 -108 -6 -18 -20 -36
-31 -39 -10 -4 -19 -11 -19 -17 0 -18 44 17 58 46 18 37 7 92 -21 111 -25 16
-97 28 -97 16z"/>
<path d="M1634 1025 c-35 -33 -36 -37 -32 -85 3 -30 13 -59 24 -71 20 -23 63
-43 72 -34 3 3 -9 10 -27 16 -18 6 -38 24 -46 40 -26 50 -22 55 50 53 36 -2
65 1 65 5 0 4 -27 7 -61 6 -33 0 -62 2 -65 6 -16 27 54 89 101 89 27 0 72 -31
84 -57 14 -31 7 -43 -24 -37 -14 2 -25 0 -25 -5 0 -6 16 -9 36 -8 34 2 35 3
30 32 -9 45 -58 85 -105 85 -31 0 -47 -7 -77 -35z"/>
<path d="M1891 950 c-1 -60 2 -110 6 -110 5 0 8 36 8 80 0 95 17 121 83 126
50 3 84 -28 87 -81 4 -46 15 -59 15 -16 0 92 -81 138 -158 91 -19 -12 -31 -17
-28 -12 2 4 1 14 -3 20 -4 7 -9 -37 -10 -98z"/>
<path d="M98 988 c-21 -12 -38 -31 -41 -44 -6 -34 3 -30 53 21 48 49 45 56
-12 23z"/>
<path d="M1429 949 c-10 -6 -7 -9 14 -9 29 0 35 5 14 13 -8 3 -20 1 -28 -4z"/>
<path d="M74 905 c-17 -26 -12 -60 11 -69 21 -8 38 29 30 65 -8 35 -19 37 -41
4z m26 -37 c0 -19 -2 -20 -10 -8 -13 19 -13 30 0 30 6 0 10 -10 10 -22z"/>
<path d="M2077 903 c-3 -5 -1 -17 4 -28 7 -17 8 -17 8 8 1 27 -4 34 -12 20z"/>
<path d="M1782 875 c-12 -14 -26 -26 -32 -26 -5 -1 -14 -2 -19 -3 -5 0 -13 -5
-18 -10 -11 -12 49 3 65 16 13 12 36 48 29 48 -2 0 -13 -11 -25 -25z"/>
<path d="M430 802 c0 -5 14 -7 30 -4 17 2 30 6 30 8 0 2 -13 4 -30 4 -16 0
-30 -4 -30 -8z"/>
<path d="M504 799 c-3 -5 0 -9 5 -9 26 0 8 -18 -24 -24 -19 -4 -37 -11 -40
-16 -3 -5 18 -2 47 6 63 19 70 23 63 33 -8 13 -44 20 -51 10z"/>
<path d="M950 790 c-12 -8 -10 -70 3 -71 39 -4 1147 -3 1148 1 8 36 3 70 -11
71 -73 4 -1134 3 -1140 -1z"/>
<path d="M351 732 c-42 -14 -46 -22 -13 -30 36 -8 511 -7 502 2 -5 5 -120 8
-257 7 -157 0 -242 3 -232 9 8 5 28 11 43 14 16 3 31 7 33 10 9 9 -33 2 -76
-12z"/>
</g>
</svg>
